SRRun01_grf
version=1
nRows=30
nColumns=19
inDegrees=no
endheader
time	ground_force_r_vx	ground_force_r_vy	ground_force_r_vz	ground_force_r_px	ground_force_r_py	ground_force_r_pz	ground_force_r_mx	ground_force_r_my	ground_force_r_mz	ground_force_l_vx	ground_force_l_vy	ground_force_l_vz	ground_force_l_px	ground_force_l_py	ground_force_l_pz	ground_force_l_mx	ground_force_l_my	ground_force_l_mz
    144.99800000	     -4.92511929	   1063.09175434	    -34.03832743	      1.20404932	      0.00000000	     -0.31779576	      0.00000933	     35.29443686	      0.00006550	      0.00000000	      0.00000000	      0.00000000	      0.00000000	      0.00000000	      0.00000000	      0.00000000	      0.00000000	      0.00000000
    144.99900000	      3.93604904	   1057.72627438	    -15.69694131	      1.20338823	      0.00000000	     -0.31745628	      0.00000904	     28.54681742	      0.00006601	      0.00000000	      0.00000000	      0.00000000	      0.00000000	      0.00000000	      0.00000000	      0.00000000	      0.00000000	      0.00000000
    145.00000000	      6.84210200	   1053.61004877	      5.60871972	      1.20236376	      0.00000000	     -0.31702179	      0.00000897	     18.95912486	      0.00006648	      0.00000000	      0.00000000	      0.00000000	      0.00000000	      0.00000000	      0.00000000	      0.00000000	      0.00000000	      0.00000000
    145.00100000	      2.88579398	   1050.78257687	     28.81860229	      1.20102616	      0.00000000	     -0.31656569	      0.00000910	      7.16210930	      0.00006677	      0.00000000	      0.00000000	      0.00000000	      0.00000000	      0.00000000	      0.00000000	      0.00000000	      0.00000000	      0.00000000
    145.00200000	     -8.33964374	   1049.22580696	     52.70861120	      1.19944812	      0.00000000	     -0.31615767	      0.00000937	     -5.97868424	      0.00006675	      0.00000000	      0.00000000	      0.00000000	      0.00000000	      0.00000000	      0.00000000	      0.00000000	      0.00000000	      0.00000000
    145.00300000	    -26.67537028	   1048.88636769	     75.97663162	      1.19771728	      0.00000000	     -0.31585550	      0.00000974	    -19.42942606	      0.00006633	      0.00000000	      0.00000000	      0.00000000	      0.00000000	      0.00000000	      0.00000000	      0.00000000	      0.00000000	      0.00000000
    145.00400000	    -51.38199542	   1049.69385977	     97.33362108	      1.19592710	      0.00000000	     -0.31569895	      0.00001015	    -32.07487912	      0.00006545	      0.00000000	      0.00000000	      0.00000000	      0.00000000	      0.00000000	      0.00000000	      0.00000000	      0.00000000	      0.00000000
    145.00500000	    -81.17871703	   1051.57457080	    115.59180356	      1.19416735	      0.00000000	     -0.31570681	      0.00001055	    -42.81771512	      0.00006409	      0.00000000	      0.00000000	      0.00000000	      0.00000000	      0.00000000	      0.00000000	      0.00000000	      0.00000000	      0.00000000
    145.00600000	   -114.33480648	   1054.46079914	    129.74324006	      1.19251528	      0.00000000	     -0.31587734	      0.00001091	    -50.68068585	      0.00006227	      0.00000000	      0.00000000	      0.00000000	      0.00000000	      0.00000000	      0.00000000	      0.00000000	      0.00000000	      0.00000000
    145.00700000	   -148.80607609	   1058.29630361	    139.02379808	      1.19102869	      0.00000000	     -0.31619140	      0.00001120	    -54.90148543	      0.00006004	      0.00000000	      0.00000000	      0.00000000	      0.00000000	      0.00000000	      0.00000000	      0.00000000	      0.00000000	      0.00000000
    145.00800000	   -182.40408714	   1063.03841120	    142.95909588	      1.18974175	      0.00000000	     -0.31661734	      0.00001141	    -55.01063840	      0.00005749	      0.00000000	      0.00000000	      0.00000000	      0.00000000	      0.00000000	      0.00000000	      0.00000000	      0.00000000	      0.00000000
    145.00900000	   -212.98233109	   1068.65726656	    141.39018860	      1.18866404	      0.00000000	     -0.31711646	      0.00001152	    -50.88424202	      0.00005471	      0.00000000	      0.00000000	      0.00000000	      0.00000000	      0.00000000	      0.00000000	      0.00000000	      0.00000000	      0.00000000
    145.01000000	   -238.62174963	   1075.13279354	    134.47788011	      1.18778271	      0.00000000	     -0.31764807	      0.00001153	    -42.76572782	      0.00005181	      0.00000000	      0.00000000	      0.00000000	      0.00000000	      0.00000000	      0.00000000	      0.00000000	      0.00000000	      0.00000000
    145.01100000	   -257.79785982	   1082.45017433	    122.68585143	      1.18706733	      0.00000000	     -0.31817373	      0.00001143	    -31.25374104	      0.00004891	      0.00000000	      0.00000000	      0.00000000	      0.00000000	      0.00000000	      0.00000000	      0.00000000	      0.00000000	      0.00000000
    145.01200000	   -269.51336103	   1090.59482078	    106.74425835	      1.18647640	      0.00000000	     -0.31866053	      0.00001124	    -17.25648973	      0.00004613	      0.00000000	      0.00000000	      0.00000000	      0.00000000	      0.00000000	      0.00000000	      0.00000000	      0.00000000	      0.00000000
    145.01300000	   -273.38326899	   1099.54762044	     87.59684925	      1.18596451	      0.00000000	     -0.31908333	      0.00001095	     -1.91622928	      0.00004360	      0.00000000	      0.00000000	      0.00000000	      0.00000000	      0.00000000	      0.00000000	      0.00000000	      0.00000000	      0.00000000
    145.01400000	   -269.66408461	   1109.28064352	     66.33576286	      1.18548841	      0.00000000	     -0.31942615	      0.00001059	     13.48941929	      0.00004142	      0.00000000	      0.00000000	      0.00000000	      0.00000000	      0.00000000	      0.00000000	      0.00000000	      0.00000000	      0.00000000
    145.01500000	   -259.22383617	   1119.75291804	     44.12889989	      1.18501137	      0.00000000	     -0.31968266	      0.00001018	     27.66025272	      0.00003972	      0.00000000	      0.00000000	      0.00000000	      0.00000000	      0.00000000	      0.00000000	      0.00000000	      0.00000000	      0.00000000
    145.01600000	   -243.45557416	   1130.90589339	     22.14516490	      1.18450493	      0.00000000	     -0.31985588	      0.00000974	     39.38989287	      0.00003857	      0.00000000	      0.00000000	      0.00000000	      0.00000000	      0.00000000	      0.00000000	      0.00000000	      0.00000000	      0.00000000
    145.01700000	   -224.14254634	   1142.65894242	      1.48297531	      1.18394868	      0.00000000	     -0.31995707	      0.00000931	     47.67501294	      0.00003807	      0.00000000	      0.00000000	      0.00000000	      0.00000000	      0.00000000	      0.00000000	      0.00000000	      0.00000000	      0.00000000
    145.01800000	   -203.28819959	   1154.90618148	    -16.89283325	      1.18332846	      0.00000000	     -0.32000381	      0.00000895	     51.80730425	      0.00003823	      0.00000000	      0.00000000	      0.00000000	      0.00000000	      0.00000000	      0.00000000	      0.00000000	      0.00000000	      0.00000000
    145.01900000	   -182.92772642	   1167.51632859	    -32.20134222	      1.18263381	      0.00000000	     -0.32001716	      0.00000871	     51.43973467	      0.00003908	      0.00000000	      0.00000000	      0.00000000	      0.00000000	      0.00000000	      0.00000000	      0.00000000	      0.00000000	      0.00000000
    145.02000000	   -164.93972163	   1180.33693924	    -43.88011173	      1.18185528	      0.00000000	     -0.32001817	      0.00000864	     46.62096802	      0.00004059	      0.00000000	      0.00000000	      0.00000000	      0.00000000	      0.00000000	      0.00000000	      0.00000000	      0.00000000	      0.00000000
    145.02100000	   -150.87650301	   1193.20333796	    -51.60276272	      1.18098211	      0.00000000	     -0.32002414	      0.00000878	     37.79458939	      0.00004270	      0.00000000	      0.00000000	      0.00000000	      0.00000000	      0.00000000	      0.00000000	      0.00000000	      0.00000000	      0.00000000
    145.02200000	   -141.82978837	   1205.95132721	    -55.28023733	      1.18000039	      0.00000000	     -0.32004519	      0.00000918	     25.76281033	      0.00004533	      0.00000000	      0.00000000	      0.00000000	      0.00000000	      0.00000000	      0.00000000	      0.00000000	      0.00000000	      0.00000000
    145.02300000	   -138.34480986	   1218.43166140	    -55.04778231	      1.17889213	      0.00000000	     -0.32008200	      0.00000985	     11.61741403	      0.00004840	      0.00000000	      0.00000000	      0.00000000	      0.00000000	      0.00000000	      0.00000000	      0.00000000	      0.00000000	      0.00000000
    145.02400000	   -140.39085114	   1230.52364120	    -51.24035507	      1.17763527	      0.00000000	     -0.32012522	      0.00001079	     -3.35637278	      0.00005180	      0.00000000	      0.00000000	      0.00000000	      0.00000000	      0.00000000	      0.00000000	      0.00000000	      0.00000000	      0.00000000
    145.02500000	   -147.39015701	   1242.14529031	    -44.35928869	      1.17620517	      0.00000000	     -0.32015660	      0.00001196	    -17.79486149	      0.00005543	      0.00000000	      0.00000000	      0.00000000	      0.00000000	      0.00000000	      0.00000000	      0.00000000	      0.00000000	      0.00000000
    145.02600000	   -158.30091217	   1253.25838103	    -35.03305474	      1.17457715	      0.00000000	     -0.32015175	      0.00001333	    -30.37963001	      0.00005918	      0.00000000	      0.00000000	      0.00000000	      0.00000000	      0.00000000	      0.00000000	      0.00000000	      0.00000000	      0.00000000
    145.02700000	   -171.74421868	   1263.86770859	    -23.97499016	      1.17273009	      0.00000000	     -0.32008397	      0.00001481	    -39.95885428	      0.00006292	      0.00000000	      0.00000000	      0.00000000	      0.00000000	      0.00000000	      0.00000000	      0.00000000	      0.00000000	      0.00000000
